{
  "accessors": [
    {
      "bufferView": 2,
      "componentType": 5126,
      "count": 3826,
      "max": [
        535.47857666015625,
        547.349609375,
        21.672134399414062
      ],
      "min": [
        -535.47857666015625,
        -547.349609375,
        -2
      ],
      "type": "VEC3"
    },
    {
      "bufferView": 2,
      "byteOffset": 45912,
      "componentType": 5126,
      "count": 3826,
      "max": [
        1,
        1,
        1
      ],
      "min": [
        -1,
        -1,
        -1
      ],
      "type": "VEC3"
    },
    {
      "bufferView": 3,
      "componentType": 5126,
      "count": 3826,
      "max": [
        1,
        1,
        1,
        1
      ],
      "min": [
        -1,
        -1,
        -0.99433261156082153,
        -1
      ],
      "type": "VEC4"
    },
    {
      "bufferView": 1,
      "componentType": 5126,
      "count": 3826,
      "max": [
        1.2887418270111084,
        0.40940144658088684
      ],
      "min": [
        0.45011404156684875,
        0.0042349272407591343
      ],
      "type": "VEC2"
    },
    {
      "bufferView": 0,
      "componentType": 5125,
      "count": 15120,
      "max": [
        3825
      ],
      "min": [
        0
      ],
      "type": "SCALAR"
    },
    {
      "bufferView": 2,
      "byteOffset": 91824,
      "componentType": 5126,
      "count": 214,
      "max": [
        580.30926513671875,
        609.392822265625,
        18.334161758422852
      ],
      "min": [
        -580.30926513671875,
        -609.392822265625,
        1.3379718065261841
      ],
      "type": "VEC3"
    },
    {
      "bufferView": 2,
      "byteOffset": 94392,
      "componentType": 5126,
      "count": 214,
      "max": [
        0.99663764238357544,
        1,
        0.99074947834014893
      ],
      "min": [
        -0.99663764238357544,
        -1,
        -0.99074947834014893
      ],
      "type": "VEC3"
    },
    {
      "bufferView": 3,
      "byteOffset": 61216,
      "componentType": 5126,
      "count": 214,
      "max": [
        -0.080137938261032104,
        0.99678385257720947,
        0.29959830641746521,
        1
      ],
      "min": [
        -1,
        -0.99678385257720947,
        -0.29959908127784729,
        -1
      ],
      "type": "VEC4"
    },
    {
      "bufferView": 1,
      "byteOffset": 30608,
      "componentType": 5126,
      "count": 214,
      "max": [
        0.99799996614456177,
        0.99596786499023438
      ],
      "min": [
        0.0019999872893095016,
        0.61844921112060547
      ],
      "type": "VEC2"
    },
    {
      "bufferView": 0,
      "byteOffset": 60480,
      "componentType": 5125,
      "count": 672,
      "max": [
        213
      ],
      "min": [
        0
      ],
      "type": "SCALAR"
    }
  ],
  "asset": {
    "extras": {
      "author": "Anthony Yanez (https://sketchfab.com/paulyanez)",
      "license": "CC-BY-4.0 (http://creativecommons.org/licenses/by/4.0/)",
      "source": "https://sketchfab.com/3d-models/aegons-crown-game-of-thrones-4ade799e007e467a99261f6097a0c041",
      "title": "Aegon's Crown (Game of Thrones)"
    },
    "generator": "Sketchfab-4.33.0",
    "version": "2.0"
  },
  "bufferViews": [
    {
      "buffer": 0,
      "byteLength": 63168,
      "byteOffset": 0,
      "name": "floatBufferViews",
      "target": 34963
    },
    {
      "buffer": 0,
      "byteLength": 32320,
      "byteOffset": 63168,
      "byteStride": 8,
      "name": "floatBufferViews",
      "target": 34962
    },
    {
      "buffer": 0,
      "byteLength": 96960,
      "byteOffset": 95488,
      "byteStride": 12,
      "name": "floatBufferViews",
      "target": 34962
    },
    {
      "buffer": 0,
      "byteLength": 64640,
      "byteOffset": 192448,
      "byteStride": 16,
      "name": "floatBufferViews",
      "target": 34962
    }
  ],
  "buffers": [
    {
      "byteLength": 257088,
      "uri": "scene.bin"
    }
  ],
  "images": [
    {
      "uri": "textures/Crown_baseColor.jpeg"
    },
    {
      "uri": "textures/Crown_normal.png"
    },
    {
      "uri": "textures/Ruby_baseColor.jpeg"
    },
    {
      "uri": "textures/Ruby_emissive.jpeg"
    },
    {
      "uri": "textures/Ruby_normal.png"
    }
  ],
  "materials": [
    {
      "doubleSided": true,
      "emissiveFactor": [
        0,
        0,
        0
      ],
      "name": "Crown",
      "normalTexture": {
        "index": 1,
        "scale": 1,
        "texCoord": 0
      },
      "pbrMetallicRoughness": {
        "baseColorFactor": [
          1,
          1,
          1,
          1
        ],
        "baseColorTexture": {
          "index": 0,
          "texCoord": 0
        },
        "metallicFactor": 1,
        "roughnessFactor": 0
      }
    },
    {
      "alphaMode": "BLEND",
      "doubleSided": true,
      "emissiveFactor": [
        1,
        1,
        1
      ],
      "emissiveTexture": {
        "index": 3,
        "texCoord": 0
      },
      "name": "Ruby",
      "normalTexture": {
        "index": 4,
        "scale": 1,
        "texCoord": 0
      },
      "pbrMetallicRoughness": {
        "baseColorFactor": [
          1,
          1,
          1,
          0.68651516079999997
        ],
        "baseColorTexture": {
          "index": 2,
          "texCoord": 0
        },
        "metallicFactor": 1,
        "roughnessFactor": 0
      }
    }
  ],
  "meshes": [
    {
      "name": "Aegon's Crown_Crown_0",
      "primitives": [
        {
          "attributes": {
            "NORMAL": 1,
            "POSITION": 0,
            "TANGENT": 2,
            "TEXCOORD_0": 3
          },
          "indices": 4,
          "material": 0,
          "mode": 4
        }
      ]
    },
    {
      "name": "Aegon's Crown_Ruby_0",
      "primitives": [
        {
          "attributes": {
            "NORMAL": 6,
            "POSITION": 5,
            "TANGENT": 7,
            "TEXCOORD_0": 8
          },
          "indices": 9,
          "material": 1,
          "mode": 4
        }
      ]
    }
  ],
  "nodes": [
    {
      "children": [
        1
      ],
      "name": "RootNode (gltf orientation matrix)",
      "rotation": [
        -0.70710678118654746,
        -0,
        -0,
        0.70710678118654757
      ]
    },
    {
      "children": [
        2
      ],
      "name": "RootNode (model correction matrix)"
    },
    {
      "children": [
        3
      ],
      "matrix": [
        1,
        0,
        0,
        0,
        0,
        0,
        1,
        0,
        0,
        -1,
        0,
        0,
        0,
        0,
        0,
        1
      ],
      "name": "Aegon's Crown.FBX"
    },
    {
      "children": [
        4
      ],
      "name": "RootNode"
    },
    {
      "children": [
        5,
        6
      ],
      "matrix": [
        1.3773250579833984,
        0,
        0,
        0,
        0,
        3.0582759835326954e-16,
        -1.3773250579833984,
        0,
        0,
        15.501066207885742,
        3.4419281220467429e-15,
        0,
        0,
        0,
        0,
        1
      ],
      "name": "Aegon's Crown"
    },
    {
      "mesh": 0,
      "name": "Aegon's Crown_Crown_0"
    },
    {
      "mesh": 1,
      "name": "Aegon's Crown_Ruby_0"
    }
  ],
  "samplers": [
    {
      "magFilter": 9729,
      "minFilter": 9987,
      "wrapS": 10497,
      "wrapT": 10497
    }
  ],
  "scene": 0,
  "scenes": [
    {
      "name": "OSG_Scene",
      "nodes": [
        0
      ]
    }
  ],
  "textures": [
    {
      "sampler": 0,
      "source": 0
    },
    {
      "sampler": 0,
      "source": 1
    },
    {
      "sampler": 0,
      "source": 2
    },
    {
      "sampler": 0,
      "source": 3
    },
    {
      "sampler": 0,
      "source": 4
    }
  ]
}

